<svg xmlns="http://www.w3.org/2000/svg" xmlns:xlink="http://www.w3.org/1999/xlink" width="2170" height="1080" viewBox="0 0 2170 1080">
  <defs>
    <clipPath id="clip-path">
      <rect id="Rectangle_6" data-name="Rectangle 6" width="57.75" height="54.012" fill="none"/>
    </clipPath>
    <clipPath id="clip-homescreen_emoji">
      <rect width="2170" height="1080"/>
    </clipPath>
  </defs>
  <g id="homescreen_emoji" data-name="homescreen emoji" clip-path="url(#clip-homescreen_emoji)">
    <g id="happyyy" transform="translate(204 218.308)" clip-path="url(#clip-path)">
      <path id="Path_7" data-name="Path 7" d="M217.982,155.894a25.66,25.66,0,0,1-4.782-14.889c0-14.914,12.928-27.006,28.88-27.006s28.88,12.092,28.88,27.006-12.928,27.006-28.88,27.006a30.158,30.158,0,0,1-15.919-4.473l-10.563,4.33a1.648,1.648,0,0,1-2.242-2.095Zm39.711-19.681a1.773,1.773,0,0,0,2.382.21,1.514,1.514,0,0,0,.224-2.228,9.11,9.11,0,0,0-13.886,0,1.513,1.513,0,0,0,.224,2.228,1.771,1.771,0,0,0,2.382-.21A5.587,5.587,0,0,1,257.693,136.213Zm-15.618,21.144c5.909,0,10.716-4.495,10.716-10.021a1.7,1.7,0,0,0-3.39,0,7.348,7.348,0,0,1-14.663,0,1.7,1.7,0,0,0-3.384,0c0,5.526,4.807,10.021,10.716,10.021Zm-18-20.933a1.774,1.774,0,0,0,2.382-.21,5.587,5.587,0,0,1,8.673,0,1.774,1.774,0,0,0,2.382.21,1.514,1.514,0,0,0,.224-2.228,9.11,9.11,0,0,0-13.885,0A1.513,1.513,0,0,0,224.077,136.423Zm0,0" transform="translate(-213.2 -114)" fill="#b2f4dc"/>
      <rect id="Rectangle_5" data-name="Rectangle 5" width="42.716" height="11.09" transform="translate(8.278 13.914)" fill="#b2f4dc"/>
    </g>
    <path id="rockett" d="M122.915,281.771a2.824,2.824,0,0,0,2.066.765h.122a2.718,2.718,0,0,0,2.066-.874c7.05-6.991,6.442-17.7-1.216-24.031a20.049,20.049,0,0,0-7.415-4.151,46.509,46.509,0,0,0-8.265-24.468,98.279,98.279,0,0,0-9.846-11.251,3.615,3.615,0,0,0-4.376,0c-11.426,10.377-17.625,22.5-18.111,35.719a20.049,20.049,0,0,0-7.415,4.151c-7.658,6.335-8.265,17.04-1.216,24.031a2.718,2.718,0,0,0,2.066.874H71.5a2.824,2.824,0,0,0,2.066-.765L81.831,275a53.005,53.005,0,0,0,6.442,11.251c2.431,3.277,8.63,3.6,10.453,3.6h.122c2.553,0,6.928-.437,8.995-3.059A50.891,50.891,0,0,0,114.65,275Zm-24.675-22.5c-5.713-.109-10.332-4.26-10.332-9.394s4.619-9.285,10.332-9.285,10.332,4.151,10.332,9.285S103.954,259.16,98.241,259.269Z" transform="matrix(0.848, 0.53, -0.53, 0.848, 2099.586, 743.847)" fill="#b2f4dc"/>
    <g id="Layer_2" data-name="Layer 2" transform="matrix(0.956, -0.292, 0.292, 0.956, 1969.267, 332.484)">
      <g id="Layer_1" data-name="Layer 1">
        <path id="Path_9" data-name="Path 9" d="M83.459,0H5.332A5.5,5.5,0,0,0,0,5.645V65.861a5.5,5.5,0,0,0,5.332,5.645H17.224L30,80.539a3.381,3.381,0,0,0,3.644.179A3.8,3.8,0,0,0,35.524,77.4V71.507H83.459a5.2,5.2,0,0,0,4.043-1.97h0a5.805,5.805,0,0,0,1.286-3.676V5.645A5.5,5.5,0,0,0,83.459,0ZM67.373,45.313a28.845,28.845,0,0,1-22.741,11.14A29.2,29.2,0,0,1,22.051,44.481a1.96,1.96,0,0,1,.238-2.65,1.709,1.709,0,0,1,2.509.251A25.723,25.723,0,0,0,44.685,52.689,25.512,25.512,0,0,0,64.7,42.829h0a1.712,1.712,0,0,1,2.446-.1A1.963,1.963,0,0,1,67.373,45.313Z" fill="#9796a8"/>
      </g>
    </g>
    <g id="Layer_2-2" data-name="Layer 2" transform="translate(1152.687 135.7) rotate(30)">
      <g id="Layer_1-2" data-name="Layer 1" transform="translate(0 -0.003)">
        <path id="Path_10" data-name="Path 10" d="M76.89,20.891c0-1.493-1.073-2.909-2.931-3.887L44,1.251a13.065,13.065,0,0,0-11.249.038L2.9,17.247c-1.849,1-2.9,2.416-2.9,3.909l.182,53.2c0,4.287,5.763,7.746,12.842,7.722l51.255-.191c7.082-.022,12.8-3.519,12.788-7.809ZM60.235,58.381a28.461,28.461,0,0,1-43.378-.722,1.593,1.593,0,0,1,.229-2.3,1.746,1.746,0,0,1,2.394.221,25.428,25.428,0,0,0,19.036,9.209,25.385,25.385,0,0,0,19.161-8.561h0a1.749,1.749,0,0,1,2.34-.087,1.588,1.588,0,0,1,.218,2.242Z" transform="translate(0 0.003)" fill="#b7b3f8"/>
      </g>
    </g>
    <g id="Layer_2-3" data-name="Layer 2" transform="translate(1031.703 935.006)">
      <g id="Layer_1-3" data-name="Layer 1" transform="translate(0)">
        <path id="Path_11" data-name="Path 11" d="M4.415,41.894A27.142,27.142,0,0,1,0,27.006,26.828,26.828,0,0,1,26.644,0,26.837,26.837,0,0,1,53.3,27.006,26.83,26.83,0,0,1,26.644,54.012a26.257,26.257,0,0,1-14.691-4.473L2.2,53.869A1.581,1.581,0,0,1,.136,51.774Zm22.234,1.462a9.967,9.967,0,0,0,9.889-10.021,1.612,1.612,0,0,0-.069-.468h0c-.062-1.013-.674-1.791-1.408-1.791H18.216c-.762,0-1.388.838-1.413,1.894a1.545,1.545,0,0,0-.044.366,9.965,9.965,0,0,0,9.884,10.021Z" transform="translate(0)" fill="#f9ca95"/>
      </g>
    </g>
  </g>
</svg>
